# AST/ASF file generated using VICON BodyLanguage
# -----------------------------------------------
:version 1.10
:name VICON
:units
  mass 1.0
  length 0.45
  angle deg
:documentation
   .ast/.asf automatically generated from VICON data using
   VICON BodyBuilder and BodyLanguage model FoxedUp or BRILLIANT.MOD
:root
   order TX TY TZ RX RY RZ
   axis XYZ
   position 0 0 0  
   orientation 0 0 0 
:bonedata
  begin
     id 1 
     name lhipjoint
     direction 0.693937 -0.600361 0.397515 
     length 2.37164 
     axis 0 0 0  XYZ
  end
  begin
     id 2 
     name lfemur
     direction 0.34202 -0.939693 0  
     length 6.18497  
     axis 0 0 20  XYZ
    dof rx ry rz
    limits (-160.0 20.0)
           (-70.0 70.0)
           (-60.0 70.0)
  end
  begin
     id 3 
     name ltibia
     direction 0.34202 -0.939693 0   
     length 6.91601   
     axis 0 0 20   XYZ
    dof rx
    limits (-10.0 170.0)
  end
  begin
     id 4 
     name lfoot
     direction 0.0978718 -0.2689 0.958182   
     length 1.81453   
     axis -90 7.62852e-016 20   XYZ
    dof rx rz
    limits (-45.0 90.0)
           (-70.0 20.0)
  end
  begin
     id 5 
     name ltoes
     direction 1.53569e-011 -4.21951e-011 1   
     length 0.912052   
     axis -90 7.62852e-016 20   XYZ
    dof rx
    limits (-90.0 20.0)
  end
  begin
     id 6 
     name rhipjoint
     direction -0.643996 -0.637876 0.422354   
     length 2.23216  
     axis 0 0 0  XYZ 
  end
  begin
     id 7 
     name rfemur
     direction -0.34202 -0.939693 0   
     length 6.15404   
     axis 0 0 -20   XYZ
    dof rx ry rz
    limits (-160.0 20.0)
           (-70.0 70.0)
           (-70.0 60.0)
  end
  begin
     id 8 
     name rtibia
     direction -0.34202 -0.939693 0   
     length 6.86744   
     axis 0 0 -20   XYZ
    dof rx
    limits (-10.0 170.0)
 end
 begin
     id 9 
     name rfoot
     direction -0.118701 -0.326127 0.937844   
     length 1.9243  
     axis -90 -7.62852e-016 -20   XYZ
    dof rx rz
    limits (-45.0 90.0)
           (-20.0 70.0)
  end
  begin
     id 10 
     name rtoes
     direction -1.5356e-011 -4.2181e-011 1   
     length 0.958865   
     axis -90 -7.62852e-016 -20   XYZ
    dof rx
    limits (-90.0 20.0)
  end
  begin
     id 11 
     name lowerback
     direction 0.0310826 0.968686 -0.246334   
     length 2.00021   
     axis 0 0 0   XYZ
    dof rx ry rz
    limits (-20.0 45.0)
           (-30.0 30.0)
           (-30.0 30.0)
  end
  begin
     id 12 
     name upperback
     direction -0.0152834 0.999474 -0.0286152   
     length 2.03728   
     axis 0 0 0   XYZ
    dof rx ry rz
    limits (-20.0 45.0)
           (-30.0 30.0)
           (-30.0 30.0)
  end
  begin
     id 13 
     name thorax
     direction -0.0323701 0.996236 0.0804149   
     length 2.16   
     axis 0 0 0   XYZ
    dof rx ry rz
    limits (-20.0 45.0)
           (-30.0 30.0)
           (-30.0 30.0)
  end
  begin
     id 14 
     name lowerneck
     direction 0.0307935 0.982251 0.185027   
     length 1.43558   
     axis 0 0 0   XYZ
    dof rx ry rz
    limits (-20.0 45.0)
           (-30.0 30.0)
           (-30.0 30.0)
  end
  begin
     id 15 
     name upperneck
     direction -0.0927153 0.994775 0.0427454   
     length 1.44603   
     axis 0 0 0   XYZ
    dof rx ry rz
    limits (-20.0 45.0)
           (-30.0 30.0)
           (-30.0 30.0)
  end
  begin
     id 16
     name head
     direction -0.0341265 0.999406 -0.00472033  
     length 1.45931  
     axis 0 0 0   XYZ
    dof rx ry rz
    limits (-20.0 45.0)
           (-30.0 30.0)
           (-30.0 30.0)
  end
  begin
     id 17 
     name lclavicle
     direction 0.820755 0.555306 -0.134151  
     length 2.66075  
     axis 0 0 0   XYZ
    dof ry rz
    limits (-20.0 10.0)
           (0.0 20.0)
  end
  begin
     id 18 
     name lhumerus
     direction 1 -4.48971e-011 5.24853e-027   
     length 5.0546   
     axis -180 -30 -90   XYZ
    dof rx ry rz
    limits (-60.0 90.0)
           (-90.0 90.0)
           (-90.0 90.0)
  end
  begin
     id 19
     name lradius
     direction 1 -4.48971e-011 2.76575e-028   
     length 3.39013   
     axis -180 -30 -90   XYZ
    dof rx
    limits (-10.0 170.0)
  end
  begin
     id 20
     name lwrist
     direction 1 -4.48939e-011 -2.27826e-027   
     length 1.69507   
     axis 2.17013e-015 90 90   XYZ
    dof ry
    limits (-180.0 0.0)
 end
  begin
     id 21 
     name lhand
     direction 1 -4.49009e-011 -4.55652e-027   
     length 0.572425   
     axis 2.90745e-015 90 90   XYZ
    dof rx rz
    limits (-90.0 90.0)
           (-45.0 45.0)
  end
  begin
     id 22 
     name lfingers
     direction 1 -4.48955e-011 -9.11303e-027   
     length 0.461504   
     axis 5.81489e-015 90 90   XYZ
    dof rx
    limits (0.0 90.0)
  end
  begin
     id 23
     name lthumb
     direction 0.707107 -6.34929e-011 0.707107   
     length 0.66263   
     axis -90 45 2.85299e-015   XYZ
    dof rx rz
    limits (-45.0 45.0)
           (-45.0 45.0)
  end
  begin
     id 24 
     name rclavicle
     direction -0.754477 0.632921 -0.173712   
     length 2.73081  
     axis 0 0 0   XYZ 
    dof ry rz
    limits (-10.0 20.0)
           (-20.0 0.0)
  end
  begin
     id 25 
     name rhumerus
     direction -1 -4.48969e-011 5.1496e-027  
     length 5.0701   
     axis -180 30 90   XYZ
    dof rx ry rz
    limits (-90.0 60.0)
           (-90.0 90.0)
           (-90.0 90.0)
  end
  begin
     id 26 
     name rradius
     direction -1 -4.48967e-011 -7.15624e-028   
     length 3.14957   
     axis -180 30 90   XYZ
    dof rx
    limits (-10.0 170.0)
  end
  begin
     id 27 
     name rwrist
     direction -1 -4.48938e-011 -2.27826e-027   
     length 1.57479   
     axis 2.17013e-015 -90 -90   XYZ
    dof ry
    limits (-180.0 0.0)
  end
  begin
     id 28
     name rhand
     direction -1 -4.49008e-011 -4.55652e-027   
     length 0.718191   
     axis 2.90745e-015 -90 -90   XYZ
    dof rx rz
    limits (-90.0 90.0)
           (-45.0 45.0)
  end
  begin
     id 29
     name rfingers
     direction -1 -4.48953e-011 -9.11303e-027   
     length 0.579024   
     axis 5.81489e-015 -90 -90   XYZ
    dof rx
    limits (0.0 90.0)
  end
  begin
     id 30
     name rthumb
     direction -0.707107 -6.34937e-011 0.707107   
     length 0.831366   
     axis -90 -45 -2.85299e-015   XYZ
    dof rx rz
    limits (-45.0 45.0)
           (-45.0 45.0)
  end
:hierarchy
  begin
    root lhipjoint rhipjoint lowerback
    lhipjoint lfemur
    lfemur ltibia
    ltibia lfoot
    lfoot ltoes
    rhipjoint rfemur
    rfemur rtibia
    rtibia rfoot
    rfoot rtoes
    lowerback upperback
    upperback thorax
    thorax lowerneck lclavicle rclavicle
    lowerneck upperneck
    upperneck head
    lclavicle lhumerus
    lhumerus lradius
    lradius lwrist
    lwrist lhand lthumb
    lhand lfingers
    rclavicle rhumerus
    rhumerus rradius
    rradius rwrist
    rwrist rhand rthumb
    rhand rfingers
  end

#!OML:ASF H:\Male1\Project 1\Capture day 1\Session 1\Male1.ASF
:FULLY-SPECIFIED
:DEGREES
219
root -4.76504 14.8892 1.75304 184.759 3.39838 -180.264
lowerback 23.0173 -1.70524 -0.713879
upperback 11.2404 0.138657 -2.27465
thorax -0.51149 1.16601 -2.0714
lowerneck -8.27659 5.61601 7.3057
upperneck -9.85825 7.41052 -9.45042
head -1.07201 3.98803 -4.26459
rclavicle 4.77083e-015 -9.14409e-015
rhumerus 2.43618 -9.3537 -47.7026
rradius 114.397
rwrist -15.9316
rhand -36.0588 -2.12047
rfingers 7.12502
rthumb -9.16659 -31.9012
lclavicle 4.77083e-015 -9.14409e-015
lhumerus 2.04628 10.2098 34.3716
lradius 112.077
lwrist -9.5094
lhand -29.5187 10.3467
lfingers 7.12502
lthumb -2.85267 40.3073
rfemur -32.0452 -3.47504 20.6275
rtibia 44.9272
rfoot -23.2229 -23.0916
rtoes -16.9034
lfemur -30.4149 -10.2347 -21.7295
ltibia 47.6949
lfoot -24.0851 5.63905
ltoes -23.4401
220
root -4.66276 14.8663 1.74949 184.787 3.5617 -180.049
lowerback 23.0557 -1.60934 -0.731816
upperback 11.2441 0.263906 -2.32403
thorax -0.521047 1.23108 -2.14328
lowerneck -8.26102 5.60105 7.55366
upperneck -9.88762 7.37595 -9.39603
head -1.08119 3.96249 -4.29618
rclavicle -1.03368e-014 -2.94201e-014
rhumerus 2.21936 -9.51382 -47.8655
rradius 114.403
rwrist -15.9933
rhand -36.2492 -2.04201
rfingers 7.12502
rthumb -9.35031 -31.8146
lclavicle -1.03368e-014 -2.94201e-014
lhumerus 2.5172 10.3113 34.4721
lradius 112.291
lwrist -9.42215
lhand -29.7893 10.3066
lfingers 7.12502
lthumb -3.11397 40.2636
rfemur -32.385 -4.13881 21.4166
rtibia 45.5515
rfoot -23.6424 -22.2998
rtoes -16.8864
lfemur -30.488 -10.76 -22.4059
ltibia 47.2603
lfoot -24.0884 5.11829
ltoes -20.2178
221
root -4.56535 14.8374 1.74934 184.79 3.80087 -179.787
lowerback 23.1503 -1.45801 -0.733136
upperback 11.2608 0.474731 -2.42221
thorax -0.539832 1.34563 -2.29774
lowerneck -8.25292 5.55707 8.00901
upperneck -9.93721 7.2914 -9.33425
head -1.09374 3.90644 -4.36811
rclavicle -7.95139e-016 2.78299e-015
rhumerus 1.90265 -9.83799 -48.1091
rradius 114.346
rwrist -16.0399
rhand -36.4014 -1.83889
rfingers 7.12502
rthumb -9.49715 -31.6049
lclavicle -7.95139e-016 2.78299e-015
lhumerus 3.20404 10.3609 34.6148
lradius 112.491
lwrist -9.36456
lhand -30.0689 10.2119
lfingers 7.12502
lthumb -3.38403 40.1648
rfemur -32.8312 -5.1119 22.265
rtibia 46.3446
rfoot -23.9088 -21.1184
rtoes -16.9654
lfemur -30.5734 -11.6186 -22.6549
ltibia 47.0449
lfoot -23.9175 5.18347
ltoes -17.5433
222
root -4.47173 14.8029 1.75423 184.773 4.14534 -179.472
lowerback 23.3108 -1.24566 -0.764057
upperback 11.2828 0.766038 -2.54677
thorax -0.579652 1.50319 -2.48441
lowerneck -8.25454 5.51187 8.60988
upperneck -10.0048 7.1978 -9.28032
head -1.10685 3.84246 -4.47235
rclavicle -7.15625e-015 -1.86858e-014
rhumerus 1.54029 -10.2694 -48.407
rradius 114.233
rwrist -16.0971
rhand -36.5464 -1.62951
rfingers 7.12502
rthumb -9.63704 -31.3891
lclavicle -7.15625e-015 -1.86858e-014
lhumerus 4.0261 10.4066 34.793
lradius 112.691
lwrist -9.33224
lhand -30.2885 9.99342
lfingers 7.12502
lthumb -3.59606 39.9428
rfemur -33.4243 -6.33896 23.1765
rtibia 47.3439
rfoot -23.8784 -19.6257
rtoes -17.6747
lfemur -30.7203 -12.6186 -22.4659
ltibia 47.1392
lfoot -23.5848 5.75343
ltoes -15.4217
223
root -4.38047 14.7631 1.76499 184.757 4.62575 -179.112
lowerback 23.5231 -1.00402 -0.942627
upperback 11.2952 1.06082 -2.63478
thorax -0.654353 1.6537 -2.55152
lowerneck -8.3109 5.52801 9.10005
upperneck -10.1932 7.14912 -9.511
head -1.00523 3.82111 -4.2167
rclavicle -2.78299e-015 1.78906e-014
rhumerus 1.33567 -10.5851 -48.7065
rradius 114.053
rwrist -16.1823
rhand -36.6983 -1.45829
rfingers 7.12502
rthumb -9.78353 -31.211
lclavicle -2.78299e-015 1.78906e-014
lhumerus 4.69206 10.5984 34.9879
lradius 112.919
lwrist -9.33579
lhand -30.4266 9.63882
lfingers 7.12502
lthumb -3.72942 39.5859
rfemur -34.2188 -7.72691 24.143
rtibia 48.5975
rfoot -23.4305 -17.9598
rtoes -19.8555
lfemur -30.98 -13.4344 -21.9149
ltibia 47.5802
lfoot -23.2777 6.5786
ltoes -14.5884
224
root -4.29056 14.7164 1.78143 184.772 5.25582 -178.718
lowerback 23.7345 -0.742517 -1.24589
upperback 11.3053 1.34969 -2.70828
thorax -0.732485 1.79377 -2.53217
lowerneck -8.22508 5.59477 9.47051
upperneck -10.3662 7.22857 -9.41456
head -1.05623 3.85431 -4.25164
rclavicle 1.11319e-014 -4.77083e-015
rhumerus 1.29523 -10.7628 -49.0235
rradius 113.839
rwrist -16.3022
rhand -36.8842 -1.35446
rfingers 7.12502
rthumb -9.96292 -31.0987
lclavicle 1.11319e-014 -4.77083e-015
lhumerus 5.19244 10.9704 35.1472
lradius 113.163
lwrist -9.3859
lhand -30.4922 9.14657
lfingers 7.12502
lthumb -3.79282 39.0926
rfemur -35.256 -9.18131 25.1636
rtibia 50.1347
rfoot -22.5047 -16.2831
rtoes -24.3905
lfemur -31.4002 -13.7574 -21.1265
ltibia 48.3668
lfoot -23.1204 7.54235
ltoes -15.073
225
root -4.20136 14.6657 1.80251 184.82 6.00658 -178.301
lowerback 23.9316 -0.496052 -1.64569
upperback 11.3145 1.59096 -2.76931
thorax -0.808789 1.90345 -2.43417
lowerneck -8.07595 5.72246 9.59797
upperneck -10.6036 7.41513 -9.2406
head -1.13838 3.94928 -4.22393
rclavicle -3.97569e-015 -3.10104e-014
rhumerus 1.45417 -10.7346 -49.3546
rradius 113.62
rwrist -16.4828
rhand -37.1111 -1.311
rfingers 7.12502
rthumb -10.1818 -31.0446
lclavicle -3.97569e-015 -3.10104e-014
lhumerus 5.4635 11.5585 35.2342
lradius 113.413
lwrist -9.4976
lhand -30.5575 8.65967
lfingers 7.12502
lthumb -3.85587 38.6045
rfemur -36.5145 -10.5359 26.1457
rtibia 51.9569
rfoot -21.4659 -14.3218
rtoes -29.6996
lfemur -31.9642 -13.4549 -20.2303
ltibia 49.4377
lfoot -23.1609 8.40961
ltoes -16.6179
226
root -4.11277 14.6113 1.82681 184.904 6.82394 -177.739
lowerback 24.1315 -0.298512 -1.94547
upperback 11.3282 1.78341 -2.80805
thorax -0.884433 1.99015 -2.35878
lowerneck -7.888 5.89077 9.50659
upperneck -10.8885 7.67865 -8.98559
head -1.24575 4.08952 -4.1371
rclavicle 2.8625e-014 3.33958e-014
rhumerus 1.7603 -10.5304 -49.7047
rradius 113.426
rwrist -16.7129
rhand -37.3548 -1.29807
rfingers 7.12502
rthumb -10.4169 -31.02
lclavicle 2.8625e-014 3.33958e-014
lhumerus 5.57025 12.318 35.2286
lradius 113.643
lwrist -9.67632
lhand -30.7366 8.51294
lfingers 7.12502
lthumb -4.0288 38.4546
rfemur -37.933 -11.7003 27.1831
rtibia 54.0343
rfoot -20.433 -12.1042
rtoes -35.1343
lfemur -32.6352 -12.5837 -19.1729
ltibia 50.7064
lfoot -23.4904 8.83566
ltoes -17.8887
227
root -4.02461 14.5545 1.85254 185.011 7.6284 -176.95
lowerback 24.3609 -0.171674 -1.97136
upperback 11.3546 1.94154 -2.82347
thorax -0.960125 2.06979 -2.40787
lowerneck -7.61399 6.05935 9.27661
upperneck -11.0819 8.006 -8.38743
head -1.5219 4.2471 -4.30967
rclavicle 2.78299e-014 -6.75868e-014
rhumerus 2.11504 -10.2336 -50.0617
rradius 113.28
rwrist -16.9576
rhand -37.5939 -1.27151
rfingers 7.12502
rthumb -10.6476 -30.9817
lclavicle 2.78299e-014 -6.75868e-014
lhumerus 5.63707 13.1539 35.156
lradius 113.819
lwrist -9.91284
lhand -31.0271 8.65084
lfingers 7.12502
lthumb -4.30931 38.587
rfemur -39.4114 -12.6229 28.3017
rtibia 56.2939
rfoot -19.5603 -9.60985
rtoes -39.5854
lfemur -33.3698 -11.3308 -17.923
ltibia 52.0802
lfoot -24.0186 8.96788
ltoes -19.1144
228
root -3.93744 14.4959 1.87582 185.037 8.30279 -176.263
lowerback 24.6503 -0.110638 -1.93219
upperback 11.4133 2.04521 -2.8968
thorax -1.02626 2.13503 -2.54587
lowerneck -7.46551 6.2075 8.95733
upperneck -11.3529 8.26255 -8.03337
head -1.64416 4.38895 -4.13
rclavicle 7.15625e-015 2.22639e-014
rhumerus 2.41355 -9.93707 -50.3879
rradius 113.18
rwrist -17.177
rhand -37.8002 -1.18265
rfingers 7.12502
rthumb -10.8466 -30.8825
lclavicle 7.15625e-015 2.22639e-014
lhumerus 5.77494 13.943 35.0834
lradius 113.921
lwrist -10.1813
lhand -31.4432 9.18653
lfingers 7.12502
lthumb -4.71107 39.1142
rfemur -40.843 -13.4529 29.0849
rtibia 58.6858
rfoot -18.8431 -7.07819
rtoes -42.6704
lfemur -33.995 -10.1385 -16.8263
ltibia 53.4308
lfoot -24.647 8.46521
ltoes -18.1933
229
root -3.85121 14.4346 1.89521 184.979 8.79953 -175.708
lowerback 24.991 -0.0978407 -1.80443
upperback 11.4971 2.12373 -3.03517
thorax -1.08396 2.20189 -2.80115
lowerneck -7.34833 6.29098 8.698
upperneck -11.5915 8.42932 -7.6854
head -1.75688 4.48331 -3.9677
rclavicle 1.43125e-014 -4.85035e-014
rhumerus 2.54816 -9.75005 -50.6658
rradius 113.123
rwrist -17.3214
rhand -37.9486 -1.00534
rfingers 7.12502
rthumb -10.9897 -30.6977
lclavicle 1.43125e-014 -4.85035e-014
lhumerus 6.09704 14.5635 35.0821
lradius 113.939
lwrist -10.4514
lhand -31.907 9.96244
lfingers 7.12502
lthumb -5.15894 39.8796
rfemur -42.1654 -14.2117 29.4809
rtibia 61.1129
rfoot -18.1786 -5.2016
rtoes -44.7571
lfemur -34.4823 -9.20356 -15.8891
ltibia 54.6835
lfoot -25.3093 7.98781
ltoes -17.4369
230
root -3.7638 14.3762 1.90977 184.804 9.10451 -175.47
lowerback 25.3515 -0.101578 -1.7671
upperback 11.6097 2.18421 -3.26392
thorax -1.11469 2.27003 -3.0996
lowerneck -7.2661 6.31664 8.55791
upperneck -11.7757 8.50634 -7.4092
head -1.84566 4.5285 -3.85414
rclavicle -5.88403e-014 -2.62396e-014
rhumerus 2.48459 -9.71093 -50.876
rradius 113.109
rwrist -17.3753
rhand -38.0601 -0.806029
rfingers 7.12502
rthumb -11.0973 -30.4926
lclavicle -5.88403e-014 -2.62396e-014
lhumerus 6.63135 14.955 35.2059
lradius 113.869
lwrist -10.7026
lhand -32.3182 10.7205
lfingers 7.12502
lthumb -5.55594 40.6276
rfemur -43.3055 -14.8364 29.1844
rtibia 63.4844
rfoot -17.6667 -4.08378
rtoes -45.1362
lfemur -34.7759 -8.63589 -15.2965
ltibia 55.7557
lfoot -25.8348 7.80774
ltoes -17.0303
